<svg width="26" height="27" viewBox="0 0 26 27" fill="none" xmlns="http://www.w3.org/2000/svg">
<path d="M26 6.53761V11.1913C25.1656 11.1119 24.0813 10.9271 22.882 10.4989C21.3159 9.93938 20.1501 9.1744 19.3866 8.58212V17.9879L19.3671 17.9586C19.3795 18.145 19.3866 18.335 19.3866 18.5267C19.3866 23.1976 15.4873 27 10.6933 27C5.89931 27 2 23.1976 2 18.5267C2 13.8557 5.89931 10.0516 10.6933 10.0516C11.1628 10.0516 11.6234 10.0879 12.0734 10.1587V14.745C11.6411 14.5948 11.1769 14.5136 10.6933 14.5136C8.42386 14.5136 6.57607 16.3129 6.57607 18.5267C6.57607 20.7404 8.42386 22.5397 10.6933 22.5397C12.9627 22.5397 14.8105 20.7387 14.8105 18.5267C14.8105 18.4438 14.8087 18.3609 14.8034 18.278V0H19.5744C19.5921 0.393707 19.608 0.790875 19.6258 1.18458C19.6576 1.95991 19.9411 2.70414 20.4354 3.3137C21.0147 4.03031 21.8704 4.86263 23.0715 5.52744C24.1965 6.14735 25.2524 6.415 26 6.54106V6.53761Z" fill="#FF2B6E"/>
<path d="M24 6.53761V11.1913C23.1656 11.1119 22.0813 10.9271 20.882 10.4989C19.3159 9.93938 18.1501 9.1744 17.3866 8.58212V17.9879L17.3671 17.9586C17.3795 18.145 17.3866 18.335 17.3866 18.5267C17.3866 23.1976 13.4873 27 8.69329 27C3.89931 27 0 23.1976 0 18.5267C0 13.8557 3.89931 10.0516 8.69329 10.0516C9.16277 10.0516 9.62339 10.0879 10.0734 10.1587V14.745C9.64111 14.5948 9.17694 14.5136 8.69329 14.5136C6.42386 14.5136 4.57607 16.3129 4.57607 18.5267C4.57607 20.7404 6.42386 22.5397 8.69329 22.5397C10.9627 22.5397 12.8105 20.7387 12.8105 18.5267C12.8105 18.4438 12.8087 18.3609 12.8034 18.278V0H17.5744C17.5921 0.393707 17.608 0.790875 17.6258 1.18458C17.6576 1.95991 17.9411 2.70414 18.4354 3.3137C19.0147 4.03031 19.8704 4.86263 21.0715 5.52744C22.1965 6.14735 23.2524 6.415 24 6.54106V6.53761Z" fill="#20D6EC"/>
<path d="M25 6.53761V11.1913C24.1656 11.1119 23.0813 10.9271 21.882 10.4989C20.3159 9.93938 19.1501 9.1744 18.3866 8.58212V17.9879L18.3671 17.9586C18.3795 18.145 18.3866 18.335 18.3866 18.5267C18.3866 23.1976 14.4873 27 9.69329 27C4.89931 27 1 23.1976 1 18.5267C1 13.8557 4.89931 10.0516 9.69329 10.0516C10.1628 10.0516 10.6234 10.0879 11.0734 10.1587V14.745C10.6411 14.5948 10.1769 14.5136 9.69329 14.5136C7.42386 14.5136 5.57607 16.3129 5.57607 18.5267C5.57607 20.7404 7.42386 22.5397 9.69329 22.5397C11.9627 22.5397 13.8105 20.7387 13.8105 18.5267C13.8105 18.4438 13.8087 18.3609 13.8034 18.278V0H18.5744C18.5921 0.393707 18.608 0.790875 18.6258 1.18458C18.6576 1.95991 18.9411 2.70414 19.4354 3.3137C20.0147 4.03031 20.8704 4.86263 22.0715 5.52744C23.1965 6.14735 24.2524 6.415 25 6.54106V6.53761Z" fill="white"/>
</svg>
