<svg width="11" height="11" viewBox="0 0 11 11" fill="none" xmlns="http://www.w3.org/2000/svg">
<path d="M7.80833 0H3.19707C1.19409 0 0 1.19349 0 3.19548V7.79894C0 9.80643 1.19409 10.9999 3.19707 10.9999H7.80283C9.80581 10.9999 10.9999 9.80643 10.9999 7.80444V3.19548C11.0054 1.19349 9.81132 0 7.80833 0ZM2.75135 6.22045C2.35516 6.22045 2.0305 5.89596 2.0305 5.49996C2.0305 5.10396 2.35516 4.77946 2.75135 4.77946C3.14754 4.77946 3.4722 5.10396 3.4722 5.49996C3.4722 5.89596 3.14754 6.22045 2.75135 6.22045ZM5.5027 6.22045C5.10651 6.22045 4.78185 5.89596 4.78185 5.49996C4.78185 5.10396 5.10651 4.77946 5.5027 4.77946C5.89889 4.77946 6.22355 5.10396 6.22355 5.49996C6.22355 5.89596 5.89889 6.22045 5.5027 6.22045ZM8.25405 6.22045C7.85786 6.22045 7.5332 5.89596 7.5332 5.49996C7.5332 5.10396 7.85786 4.77946 8.25405 4.77946C8.65025 4.77946 8.9749 5.10396 8.9749 5.49996C8.9749 5.89596 8.65025 6.22045 8.25405 6.22045Z" fill="#D9D9D9"/>
</svg>
